<svg width="25" height="24" viewBox="0 0 25 24" fill="none" xmlns="http://www.w3.org/2000/svg">
<g id="Iconly/Light-Outline/Arrow - Right">
<g id="Arrow - Right">
<path id="Stroke 1" d="M4.65405 11.7256C4.65405 11.3459 4.93621 11.0321 5.30228 10.9824L5.40405 10.9756H20.4041C20.8183 10.9756 21.1541 11.3114 21.1541 11.7256C21.1541 12.1053 20.8719 12.4191 20.5058 12.4687L20.4041 12.4756L5.40405 12.4756C4.98984 12.4756 4.65405 12.1398 4.65405 11.7256Z" fill="url(#paint0_linear_845_435)"/>
<path id="Stroke 3" d="M13.8251 6.23247C13.5315 5.94021 13.5305 5.46534 13.8228 5.17181C14.0885 4.90497 14.5051 4.87987 14.7992 5.09709L14.8834 5.16953L20.9334 11.1935C21.2011 11.46 21.2254 11.8781 21.0065 12.1722L20.9335 12.2564L14.8835 18.2814C14.59 18.5737 14.1151 18.5727 13.8228 18.2792C13.5571 18.0124 13.5338 17.5957 13.7522 17.3025L13.825 17.2186L19.3411 11.7247L13.8251 6.23247Z" fill="url(#paint1_linear_845_435)"/>
</g>
</g>
<defs>
<linearGradient id="paint0_linear_845_435" x1="12.9041" y1="12.3024" x2="12.9022" y2="11.3635" gradientUnits="userSpaceOnUse">
<stop stop-color="#18D4F1"/>
<stop offset="1" stop-color="#2577DD"/>
</linearGradient>
<linearGradient id="paint1_linear_845_435" x1="17.3793" y1="16.9352" x2="17.0511" y2="8.46741" gradientUnits="userSpaceOnUse">
<stop stop-color="#18D4F1"/>
<stop offset="1" stop-color="#2577DD"/>
</linearGradient>
</defs>
</svg>
